<?xml version="1.0" encoding="iso-8859-1"?>
<!-- Uploaded to: SVG Repo, www.svgrepo.com, Generator: SVG Repo Mixer Tools -->
<svg fill="#000000" height="800px" width="800px" version="1.1" id="Layer_1" xmlns="http://www.w3.org/2000/svg" xmlns:xlink="http://www.w3.org/1999/xlink" 
	 viewBox="0 0 403 403" xml:space="preserve">
<g>
	<g>
		<g>
			<path d="M327.5,267.102h-252c-4.971,0-9,4.029-9,9s4.029,9,9,9h252c4.971,0,9-4.029,9-9S332.471,267.102,327.5,267.102z"/>
			<path d="M394,238.889h-14.515v-51.495c0-4.971-4.029-9-9-9s-9,4.029-9,9v38.767l-4.951-4.951v-33.816c0-4.971-4.029-9-9-9
				s-9,4.029-9,9v15.816l-82.675-82.675c-1.688-1.688-3.978-2.636-6.364-2.636s-4.676,0.948-6.364,2.636l-49.061,49.061
				l-41.74-48.564c-1.654-1.925-4.044-3.062-6.581-3.13c-2.514-0.074-4.984,0.938-6.741,2.768l-75.386,78.636v-11.007
				c0-4.971-4.029-9-9-9s-9,4.029-9,9v29.783l-19.947,20.807H9c-4.971,0-9,4.029-9,9c0,4.971,4.029,9,9,9h385c4.971,0,9-4.029,9-9
				C403,242.918,398.971,238.889,394,238.889z M142.255,191.533v29.878l-17.477,17.477H50.611l94.531-98.606l36.165,42.077
				l-21.052,21.052v-11.878c0-4.971-4.029-9-9-9S142.255,186.562,142.255,191.533z M272.052,238.889v-32.755
				c0.001-4.971-4.029-9-8.999-9c-4.971,0-9,4.029-9,9v32.755h-5.376v-47.355c0-4.971-4.029-9-9-9s-9,4.029-9,9v47.355h-27.246
				v-15.708c0-4.971-4.029-9-9-9c-4.971,0-9,4.029-9,9v15.708h-35.198l99.262-99.263l99.262,99.263H272.052z"/>
		</g>
	</g>
</g>
</svg>